<svg width="40" height="40" viewBox="0 0 40 40" fill="none" xmlns="http://www.w3.org/2000/svg">
<path d="M20 36.1167C19.7974 36.1222 19.5967 36.0763 19.4166 35.9833C18.9 35.7 6.54997 29.15 3.96664 20.3167C2.4833 15.3167 2.9833 10.4333 5.29997 7.33334C6.14669 6.21456 7.25097 5.31671 8.51898 4.71607C9.78699 4.11543 11.1813 3.82977 12.5833 3.88334C14.0883 3.80962 15.5835 4.16335 16.8959 4.90363C18.2084 5.64391 19.2845 6.74052 20 8.06667C20.7154 6.74052 21.7915 5.64391 23.104 4.90363C24.4164 4.16335 25.9116 3.80962 27.4166 3.88334C28.8187 3.82977 30.2129 4.11543 31.481 4.71607C32.749 5.31671 33.8532 6.21456 34.7 7.33334C37.0166 10.4333 37.5166 15.2833 36.0333 20.3167C33.45 29.15 21.0333 35.7 20.5833 35.9833C20.4032 36.0763 20.2026 36.1222 20 36.1167ZM12.5833 6.38334C11.5697 6.33074 10.5587 6.52642 9.63792 6.95339C8.71718 7.38036 7.91462 8.0257 7.29997 8.83334C5.46664 11.3 5.09997 15.3333 6.36664 19.6167C8.36664 26.4333 17.5833 32.0667 20 33.45C22.4166 32.0667 31.6666 26.4167 33.6333 19.6167C34.9 15.3333 34.5333 11.2833 32.7 8.83334C32.0853 8.0257 31.2828 7.38036 30.362 6.95339C29.4413 6.52642 28.4302 6.33074 27.4166 6.38334C21.7166 6.38334 21.2833 11.9 21.25 12.5167C21.2331 12.8381 21.0944 13.141 20.8623 13.3639C20.6301 13.5867 20.3218 13.7129 20 13.7167V13.7167C19.6782 13.7129 19.3698 13.5867 19.1377 13.3639C18.9055 13.141 18.7669 12.8381 18.75 12.5167C18.7166 11.9 18.3333 6.38334 12.5833 6.38334Z" fill="#fff"/>
</svg>
