<svg width="40" height="40" viewBox="0 0 40 40" fill="none" xmlns="http://www.w3.org/2000/svg">
<path d="M27.35 30.2333C27.1381 30.2304 26.9302 30.1757 26.7443 30.074C26.5584 29.9724 26.4001 29.8268 26.2834 29.65C26.1275 29.3745 26.0803 29.0507 26.1513 28.7422C26.2222 28.4337 26.4061 28.163 26.6667 27.9833C28.9036 26.5433 30.6142 24.4178 31.5425 21.9246C32.4708 19.4315 32.5669 16.7048 31.8165 14.1524C31.066 11.6001 29.5093 9.3594 27.3793 7.7655C25.2492 6.1716 22.6604 5.31022 20 5.31022C17.3397 5.31022 14.7508 6.1716 12.6208 7.7655C10.4907 9.3594 8.93404 11.6001 8.18357 14.1524C7.4331 16.7048 7.5292 19.4315 8.4575 21.9246C9.3858 24.4178 11.0964 26.5433 13.3334 27.9833C13.5213 28.1899 13.6347 28.4534 13.6554 28.732C13.6761 29.0105 13.603 29.2879 13.4476 29.52C13.2922 29.7521 13.0636 29.9255 12.7982 30.0125C12.5328 30.0994 12.246 30.0951 11.9834 30C9.29162 28.2682 7.23303 25.7114 6.11562 22.7121C4.99821 19.7128 4.88207 16.4323 5.78456 13.3615C6.68706 10.2907 8.55967 7.59471 11.1222 5.67693C13.6847 3.75915 16.7993 2.72272 20 2.72272C23.2007 2.72272 26.3153 3.75915 28.8778 5.67693C31.4404 7.59471 33.313 10.2907 34.2155 13.3615C35.118 16.4323 35.0018 19.7128 33.8844 22.7121C32.767 25.7114 30.7084 28.2682 28.0167 30C27.8215 30.1402 27.5901 30.2213 27.35 30.2333Z" fill="#FFF"/>
<path d="M27.35 37.2833H12.65C12.3185 37.2833 12.0006 37.1516 11.7661 36.9172C11.5317 36.6828 11.4 36.3649 11.4 36.0333V28.9833C11.4 28.6518 11.5317 28.3339 11.7661 28.0995C12.0006 27.865 12.3185 27.7333 12.65 27.7333C12.9815 27.7333 13.2995 27.865 13.5339 28.0995C13.7683 28.3339 13.9 28.6518 13.9 28.9833V34.7833H26.1V28.9833C26.1 28.6518 26.2317 28.3339 26.4661 28.0995C26.7006 27.865 27.0185 27.7333 27.35 27.7333C27.6815 27.7333 27.9995 27.865 28.2339 28.0995C28.4683 28.3339 28.6 28.6518 28.6 28.9833V36.0333C28.6 36.3649 28.4683 36.6828 28.2339 36.9172C27.9995 37.1516 27.6815 37.2833 27.35 37.2833Z" fill="#FFF"/>
<path d="M15.2667 24.25C14.9352 24.25 14.6173 24.1183 14.3828 23.8839C14.1484 23.6495 14.0167 23.3315 14.0167 23V17C14.0167 16.6685 14.1484 16.3505 14.3828 16.1161C14.6173 15.8817 14.9352 15.75 15.2667 15.75C15.5982 15.75 15.9162 15.8817 16.1506 16.1161C16.385 16.3505 16.5167 16.6685 16.5167 17V23C16.5124 23.3302 16.3793 23.6456 16.1458 23.8791C15.9123 24.1126 15.5969 24.2457 15.2667 24.25Z" fill="#FFF"/>
<path d="M24.2667 24.25C23.9365 24.2457 23.621 24.1126 23.3876 23.8791C23.1541 23.6456 23.021 23.3302 23.0167 23V17C23.0167 16.6685 23.1484 16.3505 23.3828 16.1161C23.6172 15.8817 23.9351 15.75 24.2667 15.75C24.5982 15.75 24.9161 15.8817 25.1505 16.1161C25.385 16.3505 25.5167 16.6685 25.5167 17V23C25.5167 23.3315 25.385 23.6495 25.1505 23.8839C24.9161 24.1183 24.5982 24.25 24.2667 24.25V24.25Z" fill="#FFF"/>
<path d="M17.6334 37.3167C17.3032 37.3123 16.9877 37.1793 16.7543 36.9458C16.5208 36.7123 16.3877 36.3968 16.3834 36.0667V32.5167C16.3834 32.1851 16.5151 31.8672 16.7495 31.6328C16.9839 31.3984 17.3018 31.2667 17.6334 31.2667C17.9649 31.2667 18.2828 31.3984 18.5172 31.6328C18.7517 31.8672 18.8834 32.1851 18.8834 32.5167V36.0667C18.8834 36.3982 18.7517 36.7161 18.5172 36.9505C18.2828 37.185 17.9649 37.3167 17.6334 37.3167V37.3167Z" fill="#FFF"/>
<path d="M22.3667 37.3167C22.0352 37.3167 21.7172 37.185 21.4828 36.9505C21.2484 36.7161 21.1167 36.3982 21.1167 36.0667V32.5167C21.1167 32.1851 21.2484 31.8672 21.4828 31.6328C21.7172 31.3984 22.0352 31.2667 22.3667 31.2667C22.6982 31.2667 23.0162 31.3984 23.2506 31.6328C23.485 31.8672 23.6167 32.1851 23.6167 32.5167V36.0667C23.6124 36.3968 23.4793 36.7123 23.2458 36.9458C23.0123 37.1793 22.6969 37.3123 22.3667 37.3167V37.3167Z" fill="#FFF"/>
</svg>
